<?xml version="1.0" encoding="utf-8"?>
<!-- Generator: Adobe Illustrator 18.0.0, SVG Export Plug-In . SVG Version: 6.00 Build 0)  -->
<!DOCTYPE svg PUBLIC "-//W3C//DTD SVG 1.1//EN" "http://www.w3.org/Graphics/SVG/1.1/DTD/svg11.dtd">
<svg version="1.1" id="Layer_1" xmlns="http://www.w3.org/2000/svg" xmlns:xlink="http://www.w3.org/1999/xlink" x="0px" y="0px"
	 viewBox="0 0 350 80" enable-background="new 0 0 350 80" xml:space="preserve">
<g>
	<g>
		<path fill="#CECECE" d="M179.9,26.6V5.5h10.2v4.2h-5.6v4.1h5.2v3.9h-5.2v4.5h6v4.3H179.9z"/>
		<path fill="#CECECE" d="M209.3,26.6l0.2-14.5h-0.1l-3.5,14.5h-3.4L199,12.2h-0.1l0.1,14.5h-4.3V5.5h6l3.4,13.6h0.1l3.3-13.6h6.4
			v21.1H209.3z"/>
		<path fill="#CECECE" d="M219.2,26.6V5.5h10.2v4.2h-5.6v4.1h5.2v3.9h-5.2v4.5h6v4.3H219.2z"/>
		<path fill="#CECECE" d="M242.8,26.6l-2.8-8.4h-1.4v8.4H234V5.5h6.7c2,0,3.6,0.5,4.8,1.6c1.1,1.1,1.7,2.6,1.7,4.7
			c0,0.8-0.1,1.5-0.3,2.1c-0.2,0.6-0.4,1.1-0.7,1.6s-0.6,0.8-1,1.1c-0.4,0.3-0.7,0.5-1,0.6l3.6,9.4H242.8z M242.5,12.2
			c0-0.5-0.1-1-0.2-1.3c-0.1-0.3-0.3-0.6-0.6-0.8c-0.2-0.2-0.5-0.3-0.8-0.4c-0.3-0.1-0.6-0.1-0.8-0.1h-1.5v5.3h1.4
			c0.7,0,1.3-0.2,1.8-0.6C242.3,13.8,242.5,13.1,242.5,12.2z"/>
		<path fill="#CECECE" d="M262.6,26.6c-1,0.3-2.1,0.5-3.4,0.5c-1.3,0-2.5-0.3-3.6-0.8c-1-0.5-1.9-1.3-2.6-2.2
			c-0.7-1-1.3-2.1-1.7-3.5c-0.4-1.3-0.6-2.8-0.6-4.5c0-1.6,0.2-3.1,0.6-4.5c0.4-1.4,0.9-2.5,1.7-3.5c0.7-1,1.6-1.7,2.6-2.3
			c1-0.5,2.1-0.8,3.3-0.8c1.4,0,2.6,0.2,3.6,0.7c1,0.5,1.7,1.1,2.3,1.8l-2.6,3.5c-0.7-1-1.7-1.5-2.9-1.5c-0.7,0-1.2,0.2-1.7,0.5
			c-0.5,0.3-0.9,0.8-1.2,1.4c-0.3,0.6-0.6,1.3-0.7,2.1c-0.1,0.8-0.2,1.6-0.2,2.5c0,0.9,0.1,1.7,0.2,2.5c0.1,0.8,0.4,1.5,0.7,2.1
			c0.3,0.6,0.7,1.1,1.2,1.4c0.5,0.4,1,0.5,1.7,0.5c0.7,0,1.3-0.2,1.7-0.4v-3.9h-2.3v-4.1h6.4v11.2C264.3,25.9,263.5,26.3,262.6,26.6
			z"/>
		<path fill="#CECECE" d="M269.8,26.6V5.5h4.8v21.1H269.8z"/>
		<path fill="#CECECE" d="M288.9,26.6L284,13.8H284l0.1,12.8h-4.3V5.5h5.2l4.9,13h0.1l-0.1-13h4.1v21.1H288.9z"/>
		<path fill="#CECECE" d="M310.2,26.6c-1,0.3-2.1,0.5-3.4,0.5c-1.3,0-2.5-0.3-3.6-0.8c-1-0.5-1.9-1.3-2.6-2.2
			c-0.7-1-1.3-2.1-1.7-3.5c-0.4-1.3-0.6-2.8-0.6-4.5c0-1.6,0.2-3.1,0.6-4.5s0.9-2.5,1.7-3.5s1.6-1.7,2.6-2.3c1-0.5,2.1-0.8,3.3-0.8
			c1.4,0,2.6,0.2,3.6,0.7c1,0.5,1.7,1.1,2.3,1.8l-2.6,3.5c-0.7-1-1.7-1.5-2.9-1.5c-0.7,0-1.2,0.2-1.7,0.5c-0.5,0.3-0.9,0.8-1.2,1.4
			c-0.3,0.6-0.6,1.3-0.7,2.1c-0.1,0.8-0.2,1.6-0.2,2.5c0,0.9,0.1,1.7,0.2,2.5c0.1,0.8,0.4,1.5,0.7,2.1c0.3,0.6,0.7,1.1,1.2,1.4
			c0.5,0.4,1,0.5,1.7,0.5c0.7,0,1.3-0.2,1.7-0.4v-3.9h-2.3v-4.1h6.4v11.2C312,25.9,311.2,26.3,310.2,26.6z"/>
		<path fill="#CECECE" d="M187.8,33.5v17h-4.7v-17h-3.9v-4h12.4v4H187.8z"/>
		<path fill="#CECECE" d="M195,50.5V29.5h10.2v4.2h-5.6v4.1h5.2v3.9h-5.2v4.5h6v4.3H195z"/>
		<path fill="#CECECE" d="M220.7,50.3c-0.9,0.5-2.1,0.8-3.6,0.8c-1.2,0-2.3-0.3-3.3-0.8c-1-0.5-1.9-1.3-2.6-2.3
			c-0.7-1-1.3-2.2-1.7-3.5c-0.4-1.4-0.6-2.9-0.6-4.5c0-1.6,0.2-3.2,0.6-4.5c0.4-1.4,1-2.5,1.7-3.5c0.7-1,1.6-1.7,2.6-2.3
			c1-0.5,2.1-0.8,3.3-0.8c1.4,0,2.6,0.3,3.5,0.8c0.9,0.5,1.7,1.1,2.3,1.9l-2.6,3.5c-0.4-0.5-0.8-0.9-1.2-1.1c-0.4-0.3-1-0.4-1.7-0.4
			c-0.6,0-1.2,0.2-1.7,0.5c-0.5,0.3-0.9,0.8-1.2,1.4c-0.3,0.6-0.6,1.3-0.7,2.1c-0.2,0.8-0.2,1.7-0.2,2.6c0,0.9,0.1,1.8,0.2,2.6
			c0.2,0.8,0.4,1.5,0.7,2.1c0.3,0.6,0.7,1.1,1.2,1.4c0.5,0.3,1,0.5,1.7,0.5c0.6,0,1.2-0.2,1.7-0.5c0.5-0.3,0.9-0.7,1.1-1.1l2.6,3.3
			C222.4,49.1,221.6,49.7,220.7,50.3z"/>
		<path fill="#CECECE" d="M236.2,50.5v-8.8h-4.9v8.8h-4.7V29.5h4.7v8h4.9v-8h4.7v21.1H236.2z"/>
		<path fill="#CECECE" d="M255.3,50.5l-4.9-12.8h-0.1l0.1,12.8h-4.3V29.5h5.2l4.9,13h0.1l-0.1-13h4.1v21.1H255.3z"/>
		<path fill="#CECECE" d="M280.9,39.9c0,1.7-0.2,3.2-0.6,4.6c-0.4,1.4-0.9,2.6-1.6,3.5c-0.7,1-1.5,1.7-2.5,2.3
			c-1,0.5-2.1,0.8-3.4,0.8s-2.4-0.3-3.4-0.8c-1-0.5-1.9-1.3-2.5-2.3c-0.7-1-1.2-2.1-1.6-3.5c-0.4-1.4-0.6-2.9-0.6-4.6
			c0-1.7,0.2-3.2,0.6-4.5c0.4-1.4,0.9-2.5,1.6-3.5s1.5-1.7,2.5-2.2c1-0.5,2.1-0.8,3.4-0.8c1.3,0,2.4,0.3,3.4,0.8
			c1,0.5,1.8,1.3,2.5,2.2c0.7,1,1.2,2.1,1.6,3.5C280.7,36.8,280.9,38.3,280.9,39.9z M276,39.9c0-0.9-0.1-1.8-0.2-2.5
			c-0.1-0.8-0.3-1.5-0.6-2c-0.3-0.6-0.6-1-1-1.4c-0.4-0.3-0.9-0.5-1.4-0.5c-0.5,0-1,0.2-1.4,0.5c-0.4,0.3-0.7,0.8-1,1.4
			c-0.3,0.6-0.5,1.3-0.6,2c-0.1,0.8-0.2,1.6-0.2,2.5c0,0.9,0.1,1.8,0.2,2.6c0.1,0.8,0.3,1.5,0.6,2.1s0.6,1,1,1.4
			c0.4,0.3,0.9,0.5,1.4,0.5c0.5,0,1-0.2,1.4-0.5c0.4-0.3,0.7-0.8,1-1.4c0.3-0.6,0.5-1.3,0.6-2.1C276,41.7,276,40.9,276,39.9z"/>
		<path fill="#CECECE" d="M285.3,50.5V29.5h4.8v16.7h5.6v4.4H285.3z"/>
		<path fill="#CECECE" d="M313.8,39.9c0,1.7-0.2,3.2-0.6,4.6c-0.4,1.4-0.9,2.6-1.6,3.5c-0.7,1-1.5,1.7-2.5,2.3
			c-1,0.5-2.1,0.8-3.4,0.8c-1.2,0-2.4-0.3-3.4-0.8s-1.8-1.3-2.5-2.3c-0.7-1-1.2-2.1-1.6-3.5c-0.4-1.4-0.6-2.9-0.6-4.6
			c0-1.7,0.2-3.2,0.6-4.5c0.4-1.4,0.9-2.5,1.6-3.5c0.7-1,1.5-1.7,2.5-2.2c1-0.5,2.1-0.8,3.4-0.8c1.3,0,2.4,0.3,3.4,0.8
			c1,0.5,1.8,1.3,2.5,2.2c0.7,1,1.2,2.1,1.6,3.5S313.8,38.3,313.8,39.9z M308.9,39.9c0-0.9-0.1-1.8-0.2-2.5c-0.1-0.8-0.3-1.5-0.6-2
			c-0.3-0.6-0.6-1-1-1.4c-0.4-0.3-0.9-0.5-1.4-0.5c-0.5,0-1,0.2-1.4,0.5c-0.4,0.3-0.7,0.8-1,1.4c-0.3,0.6-0.5,1.3-0.6,2
			s-0.2,1.6-0.2,2.5c0,0.9,0.1,1.8,0.2,2.6s0.3,1.5,0.6,2.1s0.6,1,1,1.4c0.4,0.3,0.9,0.5,1.4,0.5c0.5,0,1-0.2,1.4-0.5
			c0.4-0.3,0.7-0.8,1-1.4c0.3-0.6,0.5-1.3,0.6-2.1C308.9,41.7,308.9,40.9,308.9,39.9z"/>
		<path fill="#CECECE" d="M329.1,50.5c-1,0.3-2.1,0.5-3.4,0.5c-1.3,0-2.5-0.3-3.6-0.8c-1-0.5-1.9-1.3-2.6-2.2
			c-0.7-1-1.3-2.1-1.7-3.5c-0.4-1.3-0.6-2.8-0.6-4.5c0-1.6,0.2-3.1,0.6-4.5c0.4-1.4,0.9-2.5,1.7-3.5s1.6-1.7,2.6-2.3
			c1-0.5,2.1-0.8,3.3-0.8c1.4,0,2.6,0.2,3.6,0.7c1,0.5,1.7,1.1,2.3,1.8l-2.6,3.5c-0.7-1-1.7-1.5-2.9-1.5c-0.7,0-1.2,0.2-1.7,0.5
			c-0.5,0.3-0.9,0.8-1.2,1.4c-0.3,0.6-0.6,1.3-0.7,2.1c-0.1,0.8-0.2,1.6-0.2,2.5c0,0.9,0.1,1.7,0.2,2.5c0.1,0.8,0.4,1.5,0.7,2.1
			c0.3,0.6,0.7,1.1,1.2,1.4c0.5,0.4,1,0.5,1.7,0.5c0.7,0,1.3-0.2,1.7-0.4v-3.9h-2.3v-4.1h6.4v11.2C330.9,49.8,330.1,50.2,329.1,50.5
			z"/>
		<path fill="#CECECE" d="M343.2,42.9v7.6h-4.7v-7.6l-5.3-13.5h5.1l2.5,8.7h0.1l2.6-8.7h5.1L343.2,42.9z"/>
		<path fill="#CECECE" d="M188.7,74.5l-0.9-3.8h-4.7l-0.9,3.8h-4.8l5.1-21.1h6l5.1,21.1H188.7z M185.5,58h-0.1l-1.8,9h3.6L185.5,58z
			"/>
		<path fill="#CECECE" d="M211.7,64c0,1.6-0.2,3-0.5,4.3c-0.3,1.3-0.9,2.4-1.6,3.3c-0.7,0.9-1.6,1.6-2.7,2.1
			c-1.1,0.5-2.4,0.7-3.9,0.7H197V53.4h5.9c1.5,0,2.8,0.2,3.9,0.7c1.1,0.5,2,1.2,2.7,2.1c0.7,0.9,1.2,2,1.6,3.3
			C211.5,60.9,211.7,62.4,211.7,64z M206.9,64c0-2.1-0.4-3.7-1.1-4.8c-0.7-1.1-1.7-1.6-2.8-1.6h-1.2v12.7h1.2c1.2,0,2.1-0.5,2.8-1.6
			C206.5,67.6,206.9,66,206.9,64z"/>
		<path fill="#CECECE" d="M225.3,74.5h-6l-5.1-21.1h5.4l2.9,15.4h0.1l2.8-15.4h5.2L225.3,74.5z"/>
		<path fill="#CECECE" d="M233.8,74.5V53.4h4.8v21.1H233.8z"/>
		<path fill="#CECECE" d="M252.5,58.4c-0.4-0.4-0.8-0.7-1.3-1c-0.5-0.2-1-0.3-1.5-0.3c-0.5,0-1,0.2-1.4,0.5
			c-0.4,0.3-0.6,0.9-0.6,1.7c0,0.7,0.2,1.2,0.7,1.5c0.4,0.4,1.1,0.8,1.9,1.2c0.5,0.2,1,0.5,1.5,0.8c0.5,0.3,1,0.7,1.5,1.2
			c0.4,0.5,0.8,1,1.1,1.7c0.3,0.7,0.4,1.5,0.4,2.4c0,1.1-0.2,2.1-0.5,3c-0.4,0.9-0.8,1.6-1.5,2.1c-0.6,0.6-1.3,1-2.1,1.3
			c-0.8,0.3-1.6,0.4-2.5,0.4c-1.3,0-2.4-0.2-3.5-0.7c-1-0.5-1.9-1-2.5-1.7l2.4-3.6c0.5,0.5,1,0.9,1.6,1.1c0.6,0.3,1.2,0.4,1.8,0.4
			c0.6,0,1.1-0.2,1.5-0.6c0.4-0.4,0.6-0.9,0.6-1.6c0-0.7-0.2-1.2-0.7-1.7s-1.2-0.8-2.1-1.3c-0.6-0.3-1.1-0.6-1.6-0.9
			c-0.5-0.3-1-0.7-1.3-1.2c-0.4-0.5-0.7-1-0.9-1.7c-0.2-0.6-0.3-1.4-0.3-2.3c0-1.2,0.2-2.2,0.6-3c0.4-0.8,0.9-1.5,1.5-2.1
			c0.6-0.5,1.3-0.9,2.1-1.2c0.8-0.3,1.5-0.4,2.3-0.4c1.1,0,2.2,0.2,3.1,0.6c0.9,0.4,1.7,0.9,2.3,1.5L252.5,58.4z"/>
		<path fill="#CECECE" d="M274.4,63.9c0,1.7-0.2,3.2-0.6,4.6c-0.4,1.4-0.9,2.6-1.6,3.5c-0.7,1-1.5,1.7-2.5,2.3
			c-1,0.5-2.1,0.8-3.4,0.8s-2.4-0.3-3.4-0.8c-1-0.5-1.9-1.3-2.5-2.3c-0.7-1-1.2-2.1-1.6-3.5c-0.4-1.4-0.6-2.9-0.6-4.6
			c0-1.7,0.2-3.2,0.6-4.5c0.4-1.4,0.9-2.5,1.6-3.5c0.7-1,1.5-1.7,2.5-2.2c1-0.5,2.1-0.8,3.4-0.8c1.3,0,2.4,0.3,3.4,0.8
			c1,0.5,1.8,1.3,2.5,2.2c0.7,1,1.2,2.1,1.6,3.5S274.4,62.2,274.4,63.9z M269.5,63.9c0-0.9-0.1-1.8-0.2-2.5c-0.1-0.8-0.3-1.5-0.6-2
			c-0.3-0.6-0.6-1-1-1.4c-0.4-0.3-0.9-0.5-1.4-0.5c-0.5,0-1,0.2-1.4,0.5c-0.4,0.3-0.7,0.8-1,1.4s-0.5,1.3-0.6,2
			c-0.1,0.8-0.2,1.6-0.2,2.5c0,0.9,0.1,1.8,0.2,2.6c0.1,0.8,0.3,1.5,0.6,2.1s0.6,1,1,1.4c0.4,0.3,0.9,0.5,1.4,0.5
			c0.5,0,1-0.2,1.4-0.5c0.4-0.3,0.7-0.8,1-1.4c0.3-0.6,0.5-1.3,0.6-2.1C269.4,65.6,269.5,64.8,269.5,63.9z"/>
		<path fill="#CECECE" d="M287.5,74.5l-2.8-8.4h-1.4v8.4h-4.6V53.4h6.7c2,0,3.6,0.5,4.8,1.6c1.1,1.1,1.7,2.6,1.7,4.7
			c0,0.8-0.1,1.5-0.3,2.1c-0.2,0.6-0.4,1.1-0.7,1.6s-0.6,0.8-1,1.1c-0.4,0.3-0.7,0.5-1,0.6l3.6,9.4H287.5z M287.3,60
			c0-0.5-0.1-1-0.2-1.3c-0.1-0.3-0.3-0.6-0.6-0.8c-0.2-0.2-0.5-0.3-0.8-0.4c-0.3-0.1-0.6-0.1-0.8-0.1h-1.5v5.3h1.4
			c0.7,0,1.3-0.2,1.8-0.6C287,61.6,287.3,60.9,287.3,60z"/>
		<path fill="#CECECE" d="M305.1,58.4c-0.4-0.4-0.8-0.7-1.3-1c-0.5-0.2-1-0.3-1.5-0.3c-0.5,0-1,0.2-1.4,0.5
			c-0.4,0.3-0.6,0.9-0.6,1.7c0,0.7,0.2,1.2,0.7,1.5c0.4,0.4,1.1,0.8,1.9,1.2c0.5,0.2,1,0.5,1.5,0.8c0.5,0.3,1,0.7,1.5,1.2
			s0.8,1,1.1,1.7c0.3,0.7,0.4,1.5,0.4,2.4c0,1.1-0.2,2.1-0.5,3c-0.4,0.9-0.8,1.6-1.5,2.1c-0.6,0.6-1.3,1-2.1,1.3
			c-0.8,0.3-1.6,0.4-2.5,0.4c-1.3,0-2.4-0.2-3.5-0.7c-1-0.5-1.9-1-2.5-1.7l2.4-3.6c0.5,0.5,1,0.9,1.6,1.1c0.6,0.3,1.2,0.4,1.8,0.4
			c0.6,0,1.1-0.2,1.5-0.6c0.4-0.4,0.6-0.9,0.6-1.6c0-0.7-0.2-1.2-0.7-1.7c-0.5-0.4-1.2-0.8-2.1-1.3c-0.6-0.3-1.1-0.6-1.6-0.9
			c-0.5-0.3-1-0.7-1.3-1.2c-0.4-0.5-0.7-1-0.9-1.7c-0.2-0.6-0.3-1.4-0.3-2.3c0-1.2,0.2-2.2,0.6-3c0.4-0.8,0.9-1.5,1.5-2.1
			c0.6-0.5,1.3-0.9,2.1-1.2c0.8-0.3,1.5-0.4,2.3-0.4c1.2,0,2.2,0.2,3.1,0.6c0.9,0.4,1.7,0.9,2.3,1.5L305.1,58.4z"/>
	</g>
	<polygon fill="#FFFFFF" points="83.1,6.4 38.4,6.4 38.4,19.4 50.8,19.4 50.8,74.2 65.8,74.2 65.8,19.4 80.1,19.4 	"/>
	<path fill="#FFFFFF" d="M1.4,74.2V6.4h32.7v13.5H16.1v13.3h16.7v12.6H16.1v14.6h21.8v13.8H1.4z"/>
	<path fill="#FFFFFF" d="M107.4,74.2l-2.8-12.3H89.4l-2.8,12.3H71.3L87.8,6.4H107l16.4,67.8H107.4z M97.3,21.2h-0.4L91.1,50h11.6
		L97.3,21.2z"/>
	<polygon fill="#FFCE03" points="158.5,74.2 141.7,6.2 135.8,6.2 152.7,74.2 	"/>
</g>
</svg>
